<?xml version="1.0" encoding="UTF-8" standalone="no"?>
<!-- Created with Inkscape (http://www.inkscape.org/) -->

<svg
   width="auto"
   height="auto"
   viewBox="0 0 31.44046 31.440224"
   version="1.1"
   id="svg533"
   inkscape:version="1.1.1 (3bf5ae0d25, 2021-09-20)"
   sodipodi:docname="about.svg"
   xmlns:inkscape="http://www.inkscape.org/namespaces/inkscape"
   xmlns:sodipodi="http://sodipodi.sourceforge.net/DTD/sodipodi-0.dtd"
   xmlns="http://www.w3.org/2000/svg"
   xmlns:svg="http://www.w3.org/2000/svg">
  <sodipodi:namedview
     id="namedview535"
     pagecolor="#ffffff"
     bordercolor="#666666"
     borderopacity="1.0"
     inkscape:pageshadow="2"
     inkscape:pageopacity="0.0"
     inkscape:pagecheckerboard="0"
     inkscape:document-units="mm"
     showgrid="false"
     inkscape:snap-smooth-nodes="true"
     inkscape:snap-intersection-paths="true"
     inkscape:zoom="17.597674"
     inkscape:cx="12.984671"
     inkscape:cy="10.68323"
     inkscape:window-width="1920"
     inkscape:window-height="1018"
     inkscape:window-x="-6"
     inkscape:window-y="-6"
     inkscape:window-maximized="1"
     inkscape:current-layer="layer1"
     fit-margin-top="0"
     fit-margin-left="0"
     fit-margin-right="0"
     fit-margin-bottom="0" />
  <defs
     id="defs530" />
  <g
     inkscape:label="Layer 1"
     inkscape:groupmode="layer"
     id="layer1"
     transform="translate(-128.27195,-182.02473)">
    <path
       id="path5114-2"
       style="fill:#009cd0;stroke-width:0.388118;stroke-linecap:round"
       d="M 15.720703 0 A 15.720112 15.720112 0 0 0 0 15.720703 A 15.720112 15.720112 0 0 0 15.720703 31.439453 A 15.720112 15.720112 0 0 0 31.441406 15.720703 A 15.720112 15.720112 0 0 0 15.720703 0 z M 16.269531 2.8964844 C 16.915365 2.8964844 17.462243 3.120446 17.910156 3.5683594 C 18.358076 4.0162794 18.582031 4.563151 18.582031 5.2089844 C 18.582031 5.8443977 18.358076 6.391276 17.910156 6.8496094 C 17.462243 7.2975294 16.915365 7.5214844 16.269531 7.5214844 C 15.634111 7.5214844 15.08724 7.2975294 14.628906 6.8496094 C 14.180993 6.391276 13.957031 5.8443977 13.957031 5.2089844 C 13.957031 4.563151 14.180993 4.0162794 14.628906 3.5683594 C 15.08724 3.120446 15.634111 2.8964844 16.269531 2.8964844 z M 9.3476562 10.146484 L 18.035156 10.146484 L 18.035156 11.083984 L 18.035156 23.990234 L 23.128906 23.990234 L 23.128906 26.708984 L 18.035156 26.708984 L 15.035156 26.708984 L 8.4101562 26.708984 L 8.4101562 23.990234 L 14.722656 23.990234 L 14.722656 12.865234 L 9.3476562 12.865234 L 9.3476562 10.146484 z "
       transform="translate(128.27195,182.02473)" />
    <g
       aria-label="i"
       id="text2394"
       style="font-size:32px;line-height:1.25;font-family:'Cascadia Code';-inkscape-font-specification:'Cascadia Code, Normal'" />
  </g>
</svg>
